# xmcd
#
# Track frame offsets: 
#        150
#        13532
#        30123
#        44115
#        55192
#        65447
#        76915
#        96033
#        109139
#        133157
#        149536
#        161788
#
# Disc length: 2433 seconds
#
# Revision: 1
# Processed by: cddbd v1.5.2PL0 Copyright (c) Steve Scherf et al.
# Submitted via: ExactAudioCopy v0.95b4
#
DISCID=a0097f0c
DTITLE=Garth Brooks - The Ultimate Collection - Disc 1 (Old School)
DYEAR=2016
DGENRE=Country
TTITLE0=Much Too Young (To Feel This Damn Old)
TTITLE1=If Tomorrow Never Comes
TTITLE2=1982
TTITLE3=Unwound
TTITLE4=Longneck Bottle
TTITLE5=Two Of A Kind, Workin' On A Full House
TTITLE6=Good Ol' Boys Like Me
TTITLE7=Amos Moses
TTITLE8=That Ol' Wind
TTITLE9=Alabama Clay
TTITLE10=White Lightning
TTITLE11=Don't Close Your Eyes
EXTD=
EXTT0=
EXTT1=
EXTT2=
EXTT3=
EXTT4=
EXTT5=
EXTT6=
EXTT7=
EXTT8=
EXTT9=
EXTT10=
EXTT11=
PLAYORDER=
